<svg width="23" height="22" viewBox="0 0 23 22" fill="none" xmlns="http://www.w3.org/2000/svg">
<path d="M15.6459 17.0148C16.0747 18.6152 15.125 20.2602 13.5246 20.689C11.9242 21.1178 10.2792 20.1681 9.85036 18.5677M2.05683 10.6133C1.66734 9.21513 2.07238 7.70349 3.10878 6.68738M12.1463 4.74085C12.4505 4.19355 12.5507 3.53205 12.3759 2.87945C12.0185 1.54579 10.6477 0.75433 9.314 1.11168C7.98034 1.46904 7.18888 2.83988 7.54624 4.17355C7.7211 4.82614 8.13863 5.34891 8.67573 5.67079M20.319 5.72C19.9572 4.31439 18.8506 3.20779 17.445 2.84602M17.4906 8.44528C17.1337 7.11315 16.1808 5.99919 14.8415 5.34845C13.5022 4.69772 11.8863 4.56352 10.3492 4.97538C8.81214 5.38724 7.47981 6.31142 6.64533 7.54461C5.81085 8.77779 5.54258 10.219 5.89952 11.5511C6.4901 13.7552 6.37542 15.5135 6.00247 16.8497C5.5774 18.3725 5.36487 19.134 5.42228 19.2869C5.48798 19.4618 5.53549 19.5098 5.70973 19.5773C5.86202 19.6363 6.50179 19.4649 7.78133 19.122L19.6464 15.9428C20.9259 15.5999 21.5657 15.4285 21.6681 15.3013C21.7852 15.1557 21.8024 15.0904 21.7718 14.906C21.7451 14.7449 21.1803 14.1918 20.0508 13.0855C19.0597 12.1148 18.0812 10.6493 17.4906 8.44528Z" stroke="#595959" stroke-width="2" stroke-linecap="round" stroke-linejoin="round"/>
</svg>
