<svg width="51" height="51" viewBox="0 0 51 51" fill="none" xmlns="http://www.w3.org/2000/svg">
<rect x="1.5" y="1.82227" width="48" height="48" rx="24" fill="#EEE3F8"/>
<rect x="1.5" y="1.82227" width="48" height="48" rx="24" stroke="#EEE3F8" stroke-width="2"/>
<path d="M28 33.3223V28.8223C28 28.3556 28 28.1222 27.9092 27.9439C27.8293 27.7871 27.7018 27.6597 27.545 27.5798C27.3667 27.4889 27.1334 27.4889 26.6667 27.4889H24.3333C23.8666 27.4889 23.6333 27.4889 23.455 27.5798C23.2982 27.6597 23.1707 27.7871 23.0908 27.9439C23 28.1222 23 28.3556 23 28.8223V33.3223M18 21.6556C18 23.0363 19.1193 24.1556 20.5 24.1556C21.8807 24.1556 23 23.0363 23 21.6556C23 23.0363 24.1193 24.1556 25.5 24.1556C26.8807 24.1556 28 23.0363 28 21.6556C28 23.0363 29.1193 24.1556 30.5 24.1556C31.8807 24.1556 33 23.0363 33 21.6556M20.6667 33.3223H30.3333C31.2668 33.3223 31.7335 33.3223 32.09 33.1406C32.4036 32.9808 32.6586 32.7259 32.8183 32.4123C33 32.0557 33 31.589 33 30.6556V20.9889C33 20.0555 33 19.5888 32.8183 19.2323C32.6586 18.9187 32.4036 18.6637 32.09 18.5039C31.7335 18.3223 31.2668 18.3223 30.3333 18.3223H20.6667C19.7332 18.3223 19.2665 18.3223 18.91 18.5039C18.5964 18.6637 18.3414 18.9187 18.1817 19.2323C18 19.5888 18 20.0555 18 20.9889V30.6556C18 31.589 18 32.0557 18.1817 32.4123C18.3414 32.7259 18.5964 32.9808 18.91 33.1406C19.2665 33.3223 19.7332 33.3223 20.6667 33.3223Z" stroke="#9046CF" stroke-width="1.66667" stroke-linecap="round" stroke-linejoin="round"/>
</svg>
