<svg width="12" height="12" viewBox="0 0 12 12" fill="none" xmlns="http://www.w3.org/2000/svg">
<path d="M4.46533 6L5.46533 7L7.71533 4.75M4.56628 10.3004C4.73016 10.2788 4.8957 10.3232 5.02624 10.4238L5.62786 10.8854C5.82673 11.0382 6.10338 11.0382 6.30169 10.8854L6.92608 10.406C7.04274 10.3165 7.18995 10.2771 7.3355 10.2965L8.11654 10.3993C8.36485 10.4321 8.60428 10.2938 8.70038 10.0621L9.00091 9.33546C9.05702 9.19936 9.16479 9.09158 9.30089 9.03547L10.0275 8.73492C10.2591 8.63937 10.3975 8.39938 10.3647 8.15105L10.2658 7.39829C10.2441 7.23441 10.2886 7.06886 10.3891 6.93831L10.8508 6.33666C11.0035 6.13777 11.0035 5.86111 10.8508 5.66279L10.3714 5.03836C10.2819 4.9217 10.2425 4.77448 10.2619 4.62893L10.3647 3.84784C10.3975 3.59951 10.2591 3.36007 10.0275 3.26396L9.30089 2.96342C9.16479 2.90731 9.05702 2.79953 9.00091 2.66343L8.70038 1.93678C8.60483 1.70512 8.36485 1.56679 8.11654 1.59957L7.3355 1.70234C7.18995 1.72234 7.04274 1.6829 6.92664 1.59401L6.30225 1.11458C6.10338 0.961807 5.82673 0.961807 5.62842 1.11458L5.00402 1.59401C4.88737 1.6829 4.74016 1.72234 4.59461 1.70345L3.81357 1.60068C3.56525 1.5679 3.32583 1.70623 3.22973 1.93789L2.92975 2.66454C2.87309 2.80009 2.76532 2.90786 2.62978 2.96453L1.90317 3.26452C1.67152 3.36063 1.5332 3.60007 1.56598 3.84839L1.66875 4.62948C1.68763 4.77503 1.64819 4.92225 1.55931 5.03836L1.07991 5.66279C0.927141 5.86167 0.927141 6.13833 1.07991 6.33666L1.55931 6.96108C1.64875 7.07775 1.68819 7.22497 1.66875 7.37052L1.56598 8.15161C1.5332 8.39993 1.67152 8.63937 1.90317 8.73548L2.62978 9.03603C2.76588 9.09214 2.87365 9.19991 2.92975 9.33602L3.23028 10.0627C3.32583 10.2943 3.56581 10.4327 3.81412 10.3999L4.56628 10.3004Z" stroke="#0F4412" stroke-linecap="round" stroke-linejoin="round"/>
</svg>
