<svg width="61" height="61" viewBox="0 0 61 61" fill="none" xmlns="http://www.w3.org/2000/svg">
<rect x="2.96191" y="2.50977" width="56" height="56" rx="28" fill="#EEE3F8"/>
<rect x="2.96191" y="2.50977" width="56" height="56" rx="28" stroke="#F6ECFF" stroke-width="4"/>
<path d="M36.9618 34.3467C38.4177 35.078 39.6659 36.2517 40.577 37.7194C40.7574 38.01 40.8476 38.1554 40.8788 38.3566C40.9422 38.7655 40.6626 39.2683 40.2817 39.4301C40.0943 39.5098 39.8834 39.5098 39.4618 39.5098M34.9618 30.042C36.4435 29.3057 37.4618 27.7766 37.4618 26.0098C37.4618 24.2429 36.4435 22.7139 34.9618 21.9775M32.9618 26.0098C32.9618 28.495 30.947 30.5098 28.4618 30.5098C25.9765 30.5098 23.9618 28.495 23.9618 26.0098C23.9618 23.5245 25.9765 21.5098 28.4618 21.5098C30.947 21.5098 32.9618 23.5245 32.9618 26.0098ZM21.521 37.4481C23.1153 35.0543 25.6311 33.5098 28.4618 33.5098C31.2924 33.5098 33.8082 35.0543 35.4025 37.4481C35.7518 37.9725 35.9264 38.2347 35.9063 38.5697C35.8907 38.8305 35.7197 39.1498 35.5113 39.3074C35.2437 39.5098 34.8756 39.5098 34.1394 39.5098H22.7841C22.0479 39.5098 21.6798 39.5098 21.4122 39.3074C21.2038 39.1498 21.0328 38.8305 21.0172 38.5697C20.9971 38.2347 21.1717 37.9725 21.521 37.4481Z" stroke="#9046CF" stroke-width="2" stroke-linecap="round" stroke-linejoin="round"/>
</svg>
