<svg width="16" height="16" viewBox="0 0 16 16" fill="none" xmlns="http://www.w3.org/2000/svg">
<g clip-path="url(#clip0_1810_4331)">
<path d="M8.82553 6.96159C8.82553 6.62964 8.69366 6.31128 8.45893 6.07656C8.2242 5.84183 7.90585 5.70996 7.5739 5.70996C7.24194 5.70996 6.92359 5.84183 6.68886 6.07656C6.45413 6.31128 6.32227 6.62964 6.32227 6.96159V9.46485C6.32227 9.7968 6.45413 10.1152 6.68886 10.3499C6.92359 10.5846 7.24194 10.7165 7.5739 10.7165C7.90585 10.7165 8.2242 10.5846 8.45893 10.3499C8.69366 10.1152 8.82553 9.7968 8.82553 9.46485" stroke="#E6E6E6" stroke-width="1.25163" stroke-linecap="round" stroke-linejoin="round"/>
<path d="M4.75879 3.33789V3.34518" stroke="#E6E6E6" stroke-width="1.25163" stroke-linecap="round" stroke-linejoin="round"/>
<path d="M2.69922 5.39648V5.40377" stroke="#E6E6E6" stroke-width="1.25163" stroke-linecap="round" stroke-linejoin="round"/>
<path d="M1.94238 8.21289V8.22018" stroke="#E6E6E6" stroke-width="1.25163" stroke-linecap="round" stroke-linejoin="round"/>
<path d="M2.69922 11.0293V11.0366" stroke="#E6E6E6" stroke-width="1.25163" stroke-linecap="round" stroke-linejoin="round"/>
<path d="M4.75879 13.0879V13.0952" stroke="#E6E6E6" stroke-width="1.25163" stroke-linecap="round" stroke-linejoin="round"/>
<path d="M7.57422 13.8457V13.853" stroke="#E6E6E6" stroke-width="1.25163" stroke-linecap="round" stroke-linejoin="round"/>
<path d="M10.3916 13.0879V13.0952" stroke="#E6E6E6" stroke-width="1.25163" stroke-linecap="round" stroke-linejoin="round"/>
<path d="M12.4492 11.0293V11.0366" stroke="#E6E6E6" stroke-width="1.25163" stroke-linecap="round" stroke-linejoin="round"/>
<path d="M13.207 8.21289V8.22018" stroke="#E6E6E6" stroke-width="1.25163" stroke-linecap="round" stroke-linejoin="round"/>
<path d="M12.4492 5.39648V5.40377" stroke="#E6E6E6" stroke-width="1.25163" stroke-linecap="round" stroke-linejoin="round"/>
<path d="M10.3916 3.33789V3.34518" stroke="#E6E6E6" stroke-width="1.25163" stroke-linecap="round" stroke-linejoin="round"/>
<path d="M7.57422 2.58105V2.58834" stroke="#E6E6E6" stroke-width="1.25163" stroke-linecap="round" stroke-linejoin="round"/>
</g>
<defs>
<clipPath id="clip0_1810_4331">
<rect width="15.0196" height="15.0196" fill="white" transform="translate(0.0654297 0.703125)"/>
</clipPath>
</defs>
</svg>
