<svg width="30" height="30" viewBox="0 0 30 30" fill="none" xmlns="http://www.w3.org/2000/svg">
<path d="M12.3337 19.0003L8.23332 23.1519C7.66137 23.731 7.3754 24.0206 7.12959 24.041C6.91634 24.0587 6.70755 23.973 6.56827 23.8105C6.40773 23.6233 6.40773 23.2163 6.40773 22.4024V20.3225C6.40773 19.5923 5.80976 19.0639 5.08726 18.9581C3.33865 18.702 1.96536 17.3287 1.70923 15.5801C1.66699 15.2917 1.66699 14.9477 1.66699 14.2596V8.06699C1.66699 5.82678 1.66699 4.70668 2.10297 3.85103C2.48646 3.09838 3.09838 2.48646 3.85103 2.10297C4.70668 1.66699 5.82678 1.66699 8.06699 1.66699H17.9337C20.1739 1.66699 21.294 1.66699 22.1496 2.10297C22.9023 2.48646 23.5142 3.09838 23.8977 3.85103C24.3337 4.70668 24.3337 5.82678 24.3337 8.06699V13.667M24.3337 28.3337L21.4318 26.3162C21.0239 26.0326 20.8199 25.8908 20.5979 25.7902C20.4009 25.701 20.1938 25.6361 19.9811 25.5969C19.7414 25.5527 19.493 25.5527 18.9962 25.5527H16.6003C15.1069 25.5527 14.3601 25.5527 13.7897 25.2621C13.2879 25.0064 12.88 24.5984 12.6243 24.0967C12.3337 23.5263 12.3337 22.7795 12.3337 21.286V17.9337C12.3337 16.4402 12.3337 15.6934 12.6243 15.123C12.88 14.6213 13.2879 14.2133 13.7897 13.9576C14.3601 13.667 15.1069 13.667 16.6003 13.667H24.067C25.5605 13.667 26.3072 13.667 26.8776 13.9576C27.3794 14.2133 27.7873 14.6213 28.043 15.123C28.3337 15.6934 28.3337 16.4402 28.3337 17.9337V21.5527C28.3337 22.7952 28.3337 23.4165 28.1307 23.9065C27.86 24.5599 27.3409 25.0791 26.6875 25.3497C26.1974 25.5527 25.5762 25.5527 24.3337 25.5527V28.3337Z" stroke="#602F8A" stroke-width="2" stroke-linecap="round" stroke-linejoin="round"/>
</svg>
