<svg width="61" height="61" viewBox="0 0 61 61" fill="none" xmlns="http://www.w3.org/2000/svg">
<rect x="2.92285" y="2.50977" width="56" height="56" rx="28" fill="#EEE3F8"/>
<rect x="2.92285" y="2.50977" width="56" height="56" rx="28" stroke="#F6ECFF" stroke-width="4"/>
<path d="M32.4523 26.8616C31.8799 27.2697 31.1794 27.5098 30.4229 27.5098C28.4899 27.5098 26.9229 25.9428 26.9229 24.0098C26.9229 22.0768 28.4899 20.5098 30.4229 20.5098C31.6758 20.5098 32.775 21.1682 33.3934 22.1579M24.9229 38.5969H27.5331C27.8735 38.5969 28.2117 38.6374 28.5417 38.7184L31.2997 39.3886C31.8982 39.5344 32.5216 39.5486 33.1263 39.4312L36.1758 38.8379C36.9814 38.681 37.7224 38.2952 38.3032 37.7303L40.4607 35.6315C41.0769 35.0331 41.0769 34.0622 40.4607 33.4628C39.906 32.9232 39.0276 32.8625 38.4 33.3201L35.8854 35.1546C35.5253 35.4179 35.0872 35.5596 34.6365 35.5596H32.2084L33.7539 35.5595C34.6251 35.5595 35.3307 34.8731 35.3307 34.0257V33.7189C35.3307 33.0153 34.8384 32.4017 34.1369 32.2316L31.7514 31.6515C31.3632 31.5574 30.9657 31.5098 30.566 31.5098C29.6012 31.5098 27.8547 32.3086 27.8547 32.3086L24.9229 33.5346M38.9229 25.0098C38.9229 26.9428 37.3558 28.5098 35.4229 28.5098C33.4899 28.5098 31.9229 26.9428 31.9229 25.0098C31.9229 23.0768 33.4899 21.5098 35.4229 21.5098C37.3558 21.5098 38.9229 23.0768 38.9229 25.0098ZM20.9229 33.1098L20.9229 38.9098C20.9229 39.4698 20.9229 39.7498 21.0318 39.9638C21.1277 40.1519 21.2807 40.3049 21.4689 40.4008C21.6828 40.5098 21.9628 40.5098 22.5229 40.5098H23.3229C23.8829 40.5098 24.1629 40.5098 24.3768 40.4008C24.565 40.3049 24.718 40.1519 24.8139 39.9638C24.9229 39.7498 24.9229 39.4698 24.9229 38.9098V33.1098C24.9229 32.5497 24.9229 32.2697 24.8139 32.0558C24.718 31.8676 24.565 31.7146 24.3768 31.6188C24.1629 31.5098 23.8829 31.5098 23.3229 31.5098L22.5229 31.5098C21.9628 31.5098 21.6828 31.5098 21.4689 31.6188C21.2807 31.7146 21.1277 31.8676 21.0318 32.0558C20.9229 32.2697 20.9229 32.5497 20.9229 33.1098Z" stroke="#9046CF" stroke-width="2" stroke-linecap="round" stroke-linejoin="round"/>
</svg>
