<svg width="27" height="27" viewBox="0 0 27 27" fill="none" xmlns="http://www.w3.org/2000/svg">
<rect x="0.350586" y="0.0966797" width="26.2335" height="26.2335" rx="3.27919" fill="#0A66C2"/>
<path d="M9.28467 10.4727C9.9897 10.4727 10.5537 9.89983 10.5537 9.20362C10.5537 8.5074 9.98088 7.93457 9.28467 7.93457C8.58846 7.93457 8.01562 8.5074 8.01562 9.20362C8.01562 9.89983 8.58846 10.4727 9.28467 10.4727ZM11.7611 11.4333V18.5011H13.9467V15.0113C13.9467 14.0859 14.1229 13.1958 15.2598 13.1958C16.3966 13.1958 16.3966 14.2534 16.3966 15.0641V18.5011H18.591V14.6235C18.591 12.7199 18.1856 11.257 15.9648 11.257C14.8984 11.257 14.1846 11.8387 13.8938 12.3939H13.8673V11.4244H11.7699L11.7611 11.4333ZM8.19188 11.4333H10.3863V18.5011H8.19188V11.4333Z" fill="white"/>
</svg>
