<svg width="10" height="11" viewBox="0 0 10 11" fill="none" xmlns="http://www.w3.org/2000/svg">
<path d="M1.8766 6.6338C1.07649 6.98677 0.580078 7.47862 0.580078 8.02265C0.580078 9.09673 2.51498 9.96743 4.90181 9.96743C7.28863 9.96743 9.22354 9.09673 9.22354 8.02265C9.22354 7.47862 8.72713 6.98677 7.92702 6.6338M7.49484 3.91701C7.49484 5.67324 5.55007 6.51005 4.90181 7.80657C4.25355 6.51005 2.30877 5.67324 2.30877 3.91701C2.30877 2.48492 3.46971 1.32397 4.90181 1.32397C6.3339 1.32397 7.49484 2.48492 7.49484 3.91701ZM5.33398 3.91701C5.33398 4.15569 5.14049 4.34918 4.90181 4.34918C4.66312 4.34918 4.46963 4.15569 4.46963 3.91701C4.46963 3.67833 4.66312 3.48484 4.90181 3.48484C5.14049 3.48484 5.33398 3.67833 5.33398 3.91701Z" stroke="#3A3A3A" stroke-width="0.864346" stroke-linecap="round" stroke-linejoin="round"/>
</svg>