<svg width="38" height="30" viewBox="0 0 38 30" fill="none" xmlns="http://www.w3.org/2000/svg">
<path d="M2.33337 6.66602L10.9898 12.437C11.4892 12.7699 11.7389 12.9364 12.009 13.0543C12.2488 13.159 12.5001 13.235 12.7577 13.281C13.0479 13.3327 13.348 13.3327 13.9482 13.3327H24.0519C24.6521 13.3327 24.9522 13.3327 25.2424 13.281C25.5 13.235 25.7513 13.159 25.991 13.0543C26.2612 12.9364 26.5109 12.7699 27.0103 12.437L35.6667 6.66602M10.3334 28.3327H27.6667C30.467 28.3327 31.8671 28.3327 32.9367 27.7877C33.8775 27.3083 34.6424 26.5434 35.1217 25.6026C35.6667 24.5331 35.6667 23.1329 35.6667 20.3327V9.66602C35.6667 6.86575 35.6667 5.46562 35.1217 4.39606C34.6424 3.45525 33.8775 2.69035 32.9367 2.21098C31.8671 1.66602 30.467 1.66602 27.6667 1.66602H10.3334C7.53311 1.66602 6.13298 1.66602 5.06342 2.21098C4.12261 2.69035 3.35771 3.45525 2.87834 4.39606C2.33337 5.46562 2.33337 6.86575 2.33337 9.66602V20.3327C2.33337 23.1329 2.33337 24.5331 2.87834 25.6026C3.35771 26.5434 4.12261 27.3083 5.06342 27.7877C6.13298 28.3327 7.53311 28.3327 10.3334 28.3327Z" stroke="#9046CF" stroke-width="3.33333" stroke-linecap="round" stroke-linejoin="round"/>
</svg>
