<svg width="12" height="11" viewBox="0 0 12 11" fill="none" xmlns="http://www.w3.org/2000/svg">
<path d="M4.96533 7L3.4277 8.55685C3.21322 8.77401 3.10598 8.88259 3.01381 8.89025C2.93384 8.89689 2.85554 8.86474 2.80331 8.80382C2.74311 8.7336 2.74311 8.58099 2.74311 8.27577V7.49581C2.74311 7.22198 2.51887 7.02385 2.24793 6.98416V6.98416C1.5922 6.88811 1.07722 6.37313 0.98117 5.7174C0.965332 5.60928 0.965332 5.48026 0.965332 5.22222V2.9C0.965332 2.05992 0.965332 1.63988 1.12882 1.31901C1.27263 1.03677 1.5021 0.8073 1.78435 0.66349C2.10521 0.5 2.52525 0.5 3.36533 0.5H7.06533C7.90541 0.5 8.32545 0.5 8.64632 0.66349C8.92856 0.8073 9.15803 1.03677 9.30184 1.31901C9.46533 1.63988 9.46533 2.05992 9.46533 2.9V5M9.46533 10.5L8.37713 9.74344C8.22416 9.63709 8.14767 9.58391 8.06443 9.54621C7.99055 9.51275 7.91288 9.48841 7.83312 9.47371C7.74325 9.45714 7.6501 9.45714 7.46379 9.45714H6.56533C6.00528 9.45714 5.72525 9.45714 5.51134 9.34815C5.32318 9.25228 5.1702 9.0993 5.07433 8.91113C4.96533 8.69722 4.96533 8.4172 4.96533 7.85714V6.6C4.96533 6.03995 4.96533 5.75992 5.07433 5.54601C5.1702 5.35785 5.32318 5.20487 5.51134 5.10899C5.72525 5 6.00528 5 6.56533 5H9.36533C9.92538 5 10.2054 5 10.4193 5.10899C10.6075 5.20487 10.7605 5.35785 10.8563 5.54601C10.9653 5.75992 10.9653 6.03995 10.9653 6.6V7.95714C10.9653 8.42308 10.9653 8.65606 10.8892 8.83983C10.7877 9.08485 10.593 9.27953 10.348 9.38102C10.1642 9.45714 9.93127 9.45714 9.46533 9.45714V10.5Z" stroke="#A0A0A0" stroke-linecap="round" stroke-linejoin="round"/>
</svg>
