<svg width="11" height="11" viewBox="0 0 11 11" fill="none" xmlns="http://www.w3.org/2000/svg">
<g clip-path="url(#clip0_2573_80757)">
<path d="M9.46535 3.60492L5.79189 5.64573M5.79189 5.64573L2.11842 3.60492M5.79189 5.64573L5.7919 9.75139M9.68146 7.39974V3.89175C9.68146 3.74367 9.68146 3.66963 9.65964 3.60359C9.64034 3.54517 9.60878 3.49155 9.56709 3.4463C9.51996 3.39516 9.45524 3.3592 9.32579 3.28729L6.12771 1.51058C6.00515 1.44248 5.94386 1.40844 5.87896 1.39509C5.82152 1.38328 5.76228 1.38328 5.70484 1.39509C5.63994 1.40844 5.57866 1.44248 5.45609 1.51058L2.25801 3.28729C2.12856 3.3592 2.06384 3.39516 2.01671 3.4463C1.97502 3.49155 1.94346 3.54517 1.92416 3.60359C1.90234 3.66963 1.90234 3.74367 1.90234 3.89175V7.39974C1.90234 7.54782 1.90234 7.62186 1.92416 7.6879C1.94346 7.74632 1.97502 7.79994 2.01671 7.84519C2.06384 7.89633 2.12856 7.93229 2.25801 8.0042L5.45609 9.78091C5.57866 9.849 5.63994 9.88305 5.70484 9.8964C5.76228 9.90821 5.82152 9.90821 5.87896 9.8964C5.94386 9.88305 6.00514 9.849 6.12771 9.78091L9.32579 8.0042C9.45524 7.93229 9.51996 7.89633 9.56709 7.84519C9.60878 7.79994 9.64034 7.74632 9.65964 7.6879C9.68146 7.62186 9.68146 7.54782 9.68146 7.39974Z" stroke="#3A3A3A" stroke-width="0.864346" stroke-linecap="round" stroke-linejoin="round"/>
<path d="M7.73672 4.5654L3.84717 2.40454" stroke="#3A3A3A" stroke-width="0.864346" stroke-linecap="round" stroke-linejoin="round"/>
</g>
<defs>
<clipPath id="clip0_2573_80757">
<rect width="10.3721" height="10.3721" fill="white" transform="translate(0.605957 0.459717)"/>
</clipPath>
</defs>
</svg>
