<svg width="60" height="61" viewBox="0 0 60 61" fill="none" xmlns="http://www.w3.org/2000/svg">
<rect x="2" y="2.50977" width="56" height="56" rx="28" fill="#EEE3F8"/>
<rect x="2" y="2.50977" width="56" height="56" rx="28" stroke="#F6ECFF" stroke-width="4"/>
<path d="M34 23.5098L36 25.5098L40 21.5098M40 30.5098V35.7098C40 37.3899 40 38.23 39.673 38.8717C39.3854 39.4362 38.9265 39.8952 38.362 40.1828C37.7202 40.5098 36.8802 40.5098 35.2 40.5098H24.8C23.1198 40.5098 22.2798 40.5098 21.638 40.1828C21.0735 39.8952 20.6146 39.4362 20.327 38.8717C20 38.23 20 37.3899 20 35.7098V25.3098C20 23.6296 20 22.7895 20.327 22.1478C20.6146 21.5833 21.0735 21.1244 21.638 20.8367C22.2798 20.5098 23.1198 20.5098 24.8 20.5098H30M20.1455 38.4361C20.6147 36.7484 22.1626 35.5098 23.9998 35.5098H30.9998C31.9291 35.5098 32.3937 35.5098 32.7801 35.5866C34.3669 35.9023 35.6073 37.1426 35.9229 38.7294C35.9998 39.1158 35.9998 39.5805 35.9998 40.5098M32 28.0098C32 30.2189 30.2091 32.0098 28 32.0098C25.7909 32.0098 24 30.2189 24 28.0098C24 25.8006 25.7909 24.0098 28 24.0098C30.2091 24.0098 32 25.8006 32 28.0098Z" stroke="#9046CF" stroke-width="2" stroke-linecap="round" stroke-linejoin="round"/>
</svg>
