<svg width="61" height="61" viewBox="0 0 61 61" fill="none" xmlns="http://www.w3.org/2000/svg">
<rect x="2.03906" y="2.50977" width="56" height="56" rx="28" fill="#EEE3F8"/>
<rect x="2.03906" y="2.50977" width="56" height="56" rx="28" stroke="#F6ECFF" stroke-width="4"/>
<path d="M24.0391 38.5968H26.6494C26.9897 38.5968 27.3279 38.6373 27.6579 38.7183L30.416 39.3885C31.0144 39.5343 31.6378 39.5485 32.2425 39.4311L35.292 38.8378C36.0976 38.6808 36.8386 38.2951 37.4194 37.7302L39.577 35.6314C40.1931 35.033 40.1931 34.0621 39.577 33.4627C39.0222 32.9231 38.1438 32.8623 37.5162 33.32L35.0017 35.1545C34.6415 35.4177 34.2034 35.5595 33.7527 35.5595H31.3246L32.8701 35.5594C33.7413 35.5594 34.4469 34.873 34.4469 34.0256V33.7188C34.4469 33.0152 33.9546 32.4016 33.2531 32.2315L30.8677 31.6514C30.4794 31.5572 30.0819 31.5097 29.6822 31.5097C28.7174 31.5097 26.971 32.3085 26.971 32.3085L24.0391 33.5345M20.0391 33.1097L20.0391 38.9097C20.0391 39.4697 20.0391 39.7497 20.1481 39.9636C20.2439 40.1518 20.3969 40.3048 20.5851 40.4007C20.799 40.5097 21.079 40.5097 21.6391 40.5097H22.4391C22.9991 40.5097 23.2791 40.5097 23.4931 40.4007C23.6812 40.3048 23.8342 40.1518 23.9301 39.9636C24.0391 39.7497 24.0391 39.4697 24.0391 38.9097V33.1097C24.0391 32.5496 24.0391 32.2696 23.9301 32.0557C23.8342 31.8675 23.6812 31.7145 23.4931 31.6187C23.2791 31.5097 22.9991 31.5097 22.4391 31.5097H21.6391C21.079 31.5097 20.799 31.5097 20.5851 31.6187C20.3969 31.7145 20.2439 31.8675 20.1481 32.0557C20.0391 32.2696 20.0391 32.5496 20.0391 33.1097ZM35.2304 22.1019C34.6336 20.8531 33.2576 20.1914 31.9195 20.83C30.5813 21.4686 30.0113 22.983 30.5715 24.3125C30.9178 25.1341 31.9098 26.7297 32.6172 27.8287C32.8785 28.2348 33.0092 28.4378 33.2001 28.5566C33.3638 28.6585 33.5687 28.7134 33.7614 28.707C33.9861 28.6996 34.2008 28.5891 34.6302 28.3681C35.7923 27.77 37.4492 26.8842 38.1599 26.3458C39.3098 25.4746 39.5946 23.8732 38.7337 22.6559C37.8728 21.4386 36.3717 21.3188 35.2304 22.1019Z" stroke="#9046CF" stroke-width="2" stroke-linecap="round" stroke-linejoin="round"/>
</svg>
