<svg width="61" height="61" viewBox="0 0 61 61" fill="none" xmlns="http://www.w3.org/2000/svg">
<rect x="2.07715" y="2.50977" width="56" height="56" rx="28" fill="#EEE3F8"/>
<rect x="2.07715" y="2.50977" width="56" height="56" rx="28" stroke="#F6ECFF" stroke-width="4"/>
<path d="M27.0771 30.0101L29.0771 32.0101L33.5771 27.5101M38.0771 30.5101C38.0771 35.4186 32.7232 38.9885 30.7751 40.125C30.5537 40.2542 30.4431 40.3187 30.2868 40.3522C30.1656 40.3782 29.9887 40.3782 29.8675 40.3522C29.7112 40.3187 29.6005 40.2542 29.3792 40.125C27.4311 38.9885 22.0771 35.4186 22.0771 30.5101V25.7277C22.0771 24.9282 22.0771 24.5285 22.2079 24.1848C22.3234 23.8813 22.5111 23.6104 22.7548 23.3957C23.0306 23.1526 23.4049 23.0122 24.1536 22.7315L29.5154 20.7208C29.7232 20.6428 29.8272 20.6039 29.9341 20.5884C30.029 20.5747 30.1253 20.5747 30.2202 20.5884C30.3271 20.6039 30.4311 20.6428 30.6389 20.7208L36.0007 22.7315C36.7494 23.0122 37.1237 23.1526 37.3995 23.3957C37.6432 23.6104 37.8309 23.8813 37.9464 24.1848C38.0771 24.5285 38.0771 24.9282 38.0771 25.7277V30.5101Z" stroke="#9046CF" stroke-width="2" stroke-linecap="round" stroke-linejoin="round"/>
</svg>
