<svg width="51" height="51" viewBox="0 0 51 51" fill="none" xmlns="http://www.w3.org/2000/svg">
<rect x="1.5" y="1.82227" width="48" height="48" rx="24" fill="#EEE3F8"/>
<rect x="1.5" y="1.82227" width="48" height="48" rx="24" stroke="#EEE3F8" stroke-width="2"/>
<path d="M19.6669 27.4893H30.6133C31.4573 27.4893 31.8793 27.4893 32.2153 27.3319C32.5112 27.1933 32.7599 26.9707 32.9304 26.6919C33.1238 26.3754 33.1705 25.9559 33.2637 25.1171L33.7512 20.7295C33.7796 20.4733 33.7939 20.3452 33.7527 20.2461C33.7165 20.159 33.6518 20.0867 33.5693 20.0412C33.4753 19.9893 33.3464 19.9893 33.0886 19.9893H19.2502M17.1667 17.4893H18.2071C18.4276 17.4893 18.5379 17.4893 18.6242 17.5312C18.7001 17.5681 18.763 17.6272 18.8046 17.7007C18.8518 17.7842 18.8587 17.8943 18.8725 18.1143L19.6277 30.1975C19.6414 30.4176 19.6483 30.5276 19.6956 30.6111C19.7371 30.6846 19.8001 30.7437 19.876 30.7807C19.9623 30.8226 20.0725 30.8226 20.293 30.8226H31.3334M21.7501 33.7393H21.7584M29.2501 33.7393H29.2584M22.1667 33.7393C22.1667 33.9694 21.9802 34.1559 21.7501 34.1559C21.52 34.1559 21.3334 33.9694 21.3334 33.7393C21.3334 33.5091 21.52 33.3226 21.7501 33.3226C21.9802 33.3226 22.1667 33.5091 22.1667 33.7393ZM29.6667 33.7393C29.6667 33.9694 29.4802 34.1559 29.2501 34.1559C29.02 34.1559 28.8334 33.9694 28.8334 33.7393C28.8334 33.5091 29.02 33.3226 29.2501 33.3226C29.4802 33.3226 29.6667 33.5091 29.6667 33.7393Z" stroke="#9046CF" stroke-width="1.66667" stroke-linecap="round" stroke-linejoin="round"/>
</svg>
