<svg width="10" height="9" viewBox="0 0 10 9" fill="none" xmlns="http://www.w3.org/2000/svg">
<path d="M4.37195 0.952162C4.47156 0.750364 4.52136 0.649465 4.58897 0.617227C4.6478 0.589179 4.71614 0.589179 4.77497 0.617227C4.84258 0.649465 4.89239 0.750364 4.992 0.952162L5.93702 2.86667C5.96643 2.92625 5.98113 2.95604 6.00262 2.97917C6.02165 2.99964 6.04446 3.01623 6.06981 3.02802C6.09844 3.04133 6.1313 3.04614 6.19704 3.05575L8.31092 3.36472C8.53352 3.39726 8.64482 3.41352 8.69633 3.46789C8.74114 3.5152 8.76222 3.5802 8.75369 3.6448C8.74388 3.71905 8.6633 3.79753 8.50215 3.9545L6.97311 5.44378C6.92544 5.4902 6.90161 5.51342 6.88623 5.54104C6.87262 5.56549 6.86388 5.59236 6.86051 5.62014C6.85671 5.65153 6.86233 5.68432 6.87358 5.7499L7.23436 7.85344C7.27241 8.07531 7.29144 8.18624 7.25568 8.25207C7.22457 8.30935 7.16927 8.34952 7.10519 8.3614C7.03153 8.37506 6.93191 8.32267 6.73267 8.21789L4.8429 7.22408C4.78402 7.19311 4.75458 7.17763 4.72356 7.17155C4.6961 7.16616 4.66785 7.16616 4.64039 7.17155C4.60937 7.17763 4.57993 7.19311 4.52105 7.22408L2.63127 8.21789C2.43204 8.32267 2.33242 8.37506 2.25876 8.3614C2.19467 8.34952 2.13937 8.30935 2.10826 8.25207C2.07251 8.18624 2.09153 8.07531 2.12958 7.85344L2.49037 5.7499C2.50162 5.68432 2.50724 5.65153 2.50343 5.62014C2.50006 5.59236 2.49133 5.56549 2.47771 5.54104C2.46234 5.51342 2.4385 5.4902 2.39084 5.44378L0.861799 3.9545C0.700643 3.79753 0.620065 3.71905 0.61026 3.6448C0.601729 3.5802 0.622805 3.5152 0.66762 3.46789C0.719128 3.41352 0.830428 3.39726 1.05303 3.36472L3.1669 3.05575C3.23264 3.04614 3.26551 3.04133 3.29414 3.02802C3.31948 3.01623 3.3423 2.99964 3.36133 2.97917C3.38281 2.95604 3.39752 2.92625 3.42692 2.86667L4.37195 0.952162Z" stroke="#3A3A3A" stroke-width="0.864346" stroke-linecap="round" stroke-linejoin="round"/>
</svg>
