<svg width="20" height="18" viewBox="0 0 20 18" fill="currentColor"
    xmlns="http://www.w3.org/2000/svg">
    <path d="M6.87117 5.34121L1.5545 6.11205L1.46034 6.13121C1.31778 6.16905 1.18783 6.24405 1.08375 6.34855C0.97966 6.45304 0.905172 6.58329 0.867887 6.72598C0.830603 6.86868 0.831858 7.01872 0.871525 7.16077C0.911192 7.30283 0.987849 7.43181 1.09367 7.53454L4.94534 11.2837L4.037 16.5795L4.02617 16.6712C4.01744 16.8186 4.04806 16.9658 4.11488 17.0975C4.1817 17.2292 4.28232 17.3408 4.40645 17.4208C4.53057 17.5008 4.67374 17.5465 4.82129 17.553C4.96884 17.5595 5.11547 17.5267 5.24617 17.4579L10.0012 14.9579L14.7453 17.4579L14.8287 17.4962C14.9662 17.5504 15.1157 17.567 15.2618 17.5443C15.4079 17.5217 15.5453 17.4606 15.66 17.3673C15.7747 17.274 15.8625 17.1518 15.9144 17.0134C15.9663 16.875 15.9804 16.7252 15.9553 16.5795L15.0462 11.2837L18.8995 7.53371L18.9645 7.46288C19.0574 7.34852 19.1182 7.21159 19.1409 7.06604C19.1636 6.92049 19.1474 6.77153 19.0937 6.63432C19.0401 6.49711 18.9511 6.37657 18.8357 6.28497C18.7204 6.19337 18.5828 6.13399 18.437 6.11288L13.1203 5.34121L10.7437 0.524545C10.6749 0.38499 10.5684 0.267474 10.4363 0.185299C10.3042 0.103123 10.1517 0.0595703 9.99617 0.0595703C9.84059 0.0595703 9.68812 0.103123 9.55601 0.185299C9.4239 0.267474 9.31744 0.38499 9.24867 0.524545L6.87117 5.34121Z" fill="white"/>
</svg>