<svg width="27" height="27" viewBox="0 0 27 27" fill="none" xmlns="http://www.w3.org/2000/svg">
<rect x="0.117188" y="0.0966797" width="26.2335" height="26.2335" rx="3.27919" fill="#131313"/>
<g clip-path="url(#clip0_1843_4850)">
<path d="M16.4694 10.9649C17.4982 11.7043 18.7585 12.1393 20.1197 12.1393V9.50582C19.8621 9.50592 19.6052 9.47888 19.3531 9.42515V11.4981C17.992 11.4981 16.7319 11.0631 15.7029 10.3237V15.698C15.7029 18.3865 13.5351 20.5658 10.8613 20.5658C9.86364 20.5658 8.93631 20.2625 8.16602 19.7424C9.0452 20.6463 10.2713 21.2069 11.6277 21.2069C14.3017 21.2069 16.4695 19.0277 16.4695 16.3391V10.9649H16.4694ZM17.4151 8.30798C16.8893 7.73047 16.5441 6.98414 16.4694 6.15902V5.82031H15.743C15.9258 6.869 16.5496 7.76493 17.4151 8.30798ZM9.8572 17.6794C9.56342 17.2922 9.40463 16.8184 9.40537 16.3314C9.40537 15.1018 10.3969 14.1048 11.6201 14.1048C11.8481 14.1046 12.0747 14.1398 12.292 14.2091V11.5167C12.038 11.4817 11.7818 11.4668 11.5257 11.4723V13.5679C11.3083 13.4986 11.0816 13.4635 10.8535 13.4637C9.63032 13.4637 8.63888 14.4605 8.63888 15.6903C8.63888 16.5599 9.13443 17.3127 9.8572 17.6794Z" fill="#FF004F"/>
<path d="M15.7028 10.3237C16.7319 11.063 17.992 11.498 19.3531 11.498V9.42509C18.5933 9.26236 17.9207 8.86321 17.4151 8.30798C16.5495 7.76488 15.9258 6.86895 15.7429 5.82031H13.8348V16.3389C13.8304 17.5652 12.8407 18.5581 11.62 18.5581C10.9008 18.5581 10.2617 18.2134 9.85707 17.6794C9.13442 17.3127 8.63881 16.5598 8.63881 15.6903C8.63881 14.4607 9.63025 13.4637 10.8535 13.4637C11.0878 13.4637 11.3137 13.5004 11.5256 13.568V11.4724C8.89873 11.527 6.78613 13.6849 6.78613 16.339C6.78613 17.6639 7.3122 18.8649 8.16606 19.7425C8.93635 20.2625 9.86363 20.5659 10.8613 20.5659C13.5352 20.5659 15.7029 18.3865 15.7029 15.698L15.7028 10.3237Z" fill="black"/>
<path d="M19.3531 9.42553V8.86514C18.6679 8.86614 17.9963 8.67323 17.415 8.30847C17.9296 8.87484 18.6071 9.26542 19.3531 9.42564M15.7428 5.82075C15.7254 5.72055 15.712 5.61968 15.7027 5.51839V5.17969H13.068V15.6984C13.0638 16.9246 12.0741 17.9175 10.8534 17.9175C10.5073 17.918 10.166 17.8366 9.85697 17.68C10.2616 18.2139 10.9007 18.5585 11.6199 18.5585C12.8405 18.5585 13.8304 17.5658 13.8347 16.3395V5.8208L15.7428 5.82075ZM11.5257 11.4728V10.8761C11.3055 10.8459 11.0836 10.8308 10.8614 10.8308C8.18721 10.8308 6.01953 13.0102 6.01953 15.6984C6.01953 17.3839 6.87146 18.8692 8.16606 19.7429C7.31221 18.8654 6.78614 17.6643 6.78614 16.3394C6.78614 13.6854 8.89868 11.5274 11.5257 11.4728Z" fill="#00F2EA"/>
</g>
<defs>
<clipPath id="clip0_1843_4850">
<rect width="14.1005" height="16.068" fill="white" transform="translate(6.01953 5.17969)"/>
</clipPath>
</defs>
</svg>
