<svg width="30" height="30" viewBox="0 0 30 30" fill="none" xmlns="http://www.w3.org/2000/svg">
<g filter="url(#filter0_d_1843_4847)">
<rect x="2.00293" y="1.15625" width="26.1143" height="26.1143" rx="3.27919" fill="#1DA1F2"/>
<g clip-path="url(#clip0_1843_4847)">
<path d="M12.4068 20.0261C17.8052 20.0261 20.7587 15.5525 20.7587 11.6742C20.7587 11.5484 20.7559 11.4199 20.7503 11.2941C21.3248 10.8786 21.8207 10.3639 22.2145 9.77431C21.6794 10.0124 21.1113 10.1679 20.5295 10.2354C21.142 9.86828 21.6007 9.29148 21.8204 8.61196C21.2442 8.95347 20.614 9.19438 19.9569 9.32435C19.5141 8.85391 18.9287 8.54242 18.2912 8.43804C17.6536 8.33366 16.9995 8.44221 16.4298 8.74691C15.8602 9.0516 15.4067 9.53547 15.1397 10.1237C14.8726 10.7119 14.8067 11.3718 14.9523 12.0012C13.7855 11.9426 12.644 11.6395 11.6018 11.1115C10.5596 10.5835 9.64008 9.84236 8.90272 8.93616C8.52796 9.58229 8.41328 10.3469 8.582 11.0745C8.75071 11.8022 9.19016 12.4383 9.81102 12.8536C9.34491 12.8388 8.88902 12.7133 8.48099 12.4875V12.5238C8.48058 13.2019 8.71499 13.8592 9.1444 14.3839C9.5738 14.9087 10.1717 15.2686 10.8364 15.4024C10.4046 15.5205 9.95148 15.5378 9.51198 15.4527C9.69956 16.0359 10.0645 16.5459 10.5559 16.9116C11.0473 17.2774 11.6406 17.4806 12.2531 17.4929C11.2133 18.3096 9.92894 18.7526 8.60676 18.7505C8.37228 18.7502 8.13804 18.7358 7.90527 18.7075C9.24846 19.5692 10.811 20.0269 12.4068 20.0261Z" fill="white"/>
</g>
</g>
<defs>
<filter id="filter0_d_1843_4847" x="0.810497" y="0.560034" width="28.4991" height="28.4991" filterUnits="userSpaceOnUse" color-interpolation-filters="sRGB">
<feFlood flood-opacity="0" result="BackgroundImageFix"/>
<feColorMatrix in="SourceAlpha" type="matrix" values="0 0 0 0 0 0 0 0 0 0 0 0 0 0 0 0 0 0 127 0" result="hardAlpha"/>
<feOffset dy="0.596216"/>
<feGaussianBlur stdDeviation="0.596216"/>
<feColorMatrix type="matrix" values="0 0 0 0 0.0627451 0 0 0 0 0.0941176 0 0 0 0 0.156863 0 0 0 0.05 0"/>
<feBlend mode="normal" in2="BackgroundImageFix" result="effect1_dropShadow_1843_4847"/>
<feBlend mode="normal" in="SourceGraphic" in2="effect1_dropShadow_1843_4847" result="shape"/>
</filter>
<clipPath id="clip0_1843_4847">
<rect width="14.3092" height="14.3092" fill="white" transform="translate(7.90527 7.05859)"/>
</clipPath>
</defs>
</svg>
