<svg width="51" height="51" viewBox="0 0 51 51" fill="none" xmlns="http://www.w3.org/2000/svg">
<rect x="1.5" y="1.82227" width="48" height="48" rx="24" fill="#EEE3F8"/>
<rect x="1.5" y="1.82227" width="48" height="48" rx="24" stroke="#EEE3F8" stroke-width="2"/>
<path d="M28.8334 30.8223L30.5001 32.4889L33.8334 29.1556M25.5001 28.3223H22.1667C20.6136 28.3223 19.837 28.3223 19.2245 28.576C18.4077 28.9143 17.7588 29.5632 17.4205 30.38C17.1667 30.9926 17.1667 31.7691 17.1667 33.3223M28.4167 18.5646C29.6383 19.0591 30.5001 20.2567 30.5001 21.6556C30.5001 23.0545 29.6383 24.2521 28.4167 24.7466M26.7501 21.6556C26.7501 23.4965 25.2577 24.9889 23.4167 24.9889C21.5758 24.9889 20.0834 23.4965 20.0834 21.6556C20.0834 19.8146 21.5758 18.3223 23.4167 18.3223C25.2577 18.3223 26.7501 19.8146 26.7501 21.6556Z" stroke="#9046CF" stroke-width="1.66667" stroke-linecap="round" stroke-linejoin="round"/>
</svg>
