<svg width="27" height="35" viewBox="0 0 27 35" fill="none" xmlns="http://www.w3.org/2000/svg">
<path d="M0 4.35938H9.83937V4.35938C9.83937 7.06786 12.035 9.26351 14.7435 9.26351H18.0388V9.26351C22.5673 9.26351 26.2383 12.9345 26.2383 17.463V20.7065L17.4922 25.0657V18.1849C17.4922 16.5157 16.2425 15.1109 14.5847 14.9165L8.19947 14.1676H3.29086C1.47337 14.1676 0 12.6943 0 10.8768V4.35938Z" fill="#1C7D22"/>
<path d="M26.239 19.6172L17.4934 22.9039L17.4932 26.3636V30.5153H26.239V19.6172Z" fill="#1C7D22"/>
<path d="M10.9336 19.6172H6.56054V23.9764V26.156H10.9336V22.8866V19.6172Z" fill="#1C7D22"/>
<path d="M26.2393 0H14.9786L9.84031 4.35923H21.8662L26.2393 0Z" fill="#1C7D22"/>
<path d="M17.4961 30.5117H4.92357L0.00388908 34.871H12.3031L17.4961 30.5117Z" fill="#1C7D22"/>
</svg>